<?xml version="1.0" standalone="no"?><!DOCTYPE svg PUBLIC "-//W3C//DTD SVG 1.1//EN" "http://www.w3.org/Graphics/SVG/1.1/DTD/svg11.dtd"><svg t="1542266278065" class="icon" style="" viewBox="0 0 1024 1024" version="1.1" xmlns="http://www.w3.org/2000/svg" p-id="7580" xmlns:xlink="http://www.w3.org/1999/xlink" width="128" height="128"><defs><style type="text/css"></style></defs><path d="M512 0C227.84 0 0 227.84 0 512s227.84 512 512 512 512-227.84 512-512S796.16 0 512 0z" fill="#D81E06" p-id="7581"></path><path d="M726.016 726.016c-13.824 13.824-37.376 13.824-51.2 0L512 563.2l-162.816 162.816c-13.824 13.824-37.376 13.824-51.2 0s-13.824-37.376 0-51.2L460.8 512 297.984 349.184c-13.824-13.824-13.824-37.376 0-51.2s37.376-13.824 51.2 0L512 460.8l162.816-162.816c13.824-13.824 37.376-13.824 51.2 0s13.824 37.376 0 51.2L563.2 512l162.816 162.816c18.944 13.824 18.944 39.424 0 51.2z" fill="#FFFFFF" p-id="7582"></path></svg>