<?xml version="1.0" standalone="no"?><!DOCTYPE svg PUBLIC "-//W3C//DTD SVG 1.1//EN" "http://www.w3.org/Graphics/SVG/1.1/DTD/svg11.dtd"><svg t="1542266256515" class="icon" style="" viewBox="0 0 1024 1024" version="1.1" xmlns="http://www.w3.org/2000/svg" p-id="6788" xmlns:xlink="http://www.w3.org/1999/xlink" width="128" height="128"><defs><style type="text/css"></style></defs><path d="M0 0m68.266667 0l887.466666 0q68.266667 0 68.266667 68.266667l0 887.466666q0 68.266667-68.266667 68.266667l-887.466666 0q-68.266667 0-68.266667-68.266667l0-887.466666q0-68.266667 68.266667-68.266667Z" fill="#6A95D7" p-id="6789"></path><path d="M687.786667 223.914667l68.266666 54.613333a41.301333 41.301333 0 0 1 6.144 57.685333L701.098667 409.6a13.653333 13.653333 0 0 1-19.114667 2.048l-109.568-88.746667a13.653333 13.653333 0 0 1-2.048-19.456l59.733333-73.728a40.96 40.96 0 0 1 57.685334-5.802666zM563.2 331.093333l109.568 88.746667a13.653333 13.653333 0 0 1 2.048 19.114667l-219.477333 271.018666a13.312 13.312 0 0 1-19.114667 2.048l-109.909333-88.746666a13.994667 13.994667 0 0 1-2.048-19.114667l219.477333-271.018667a13.994667 13.994667 0 0 1 19.456-2.048z m-279.893333 477.866667a12.288 12.288 0 0 1-9.216 0 13.312 13.312 0 0 1-10.24-16.384l39.594666-162.816a8.533333 8.533333 0 0 1 0-2.389333 6.826667 6.826667 0 0 1 9.557334 0l121.173333 97.962666a6.144 6.144 0 0 1 1.706667 2.389334 6.485333 6.485333 0 0 1-3.072 8.874666z" fill="#FFFFFF" p-id="6790"></path></svg>